<svg width="57" height="58" viewBox="0 0 57 58" fill="none" xmlns="http://www.w3.org/2000/svg">
<path d="M48.2698 44.26V0.289978H8.72983C4.20983 0.289978 0.549805 3.94997 0.549805 8.46997V49.67C0.549805 54.19 4.20983 57.85 8.72983 57.85H48.2698V52.93H43.9298V44.25H48.2698V44.26Z" fill="#4499CC"/>
<path d="M50.24 3.34998H27.81C24.47 3.34998 21.73 6.07999 21.73 9.42999V10.16C21.73 12.59 23.39 14.64 25.63 15.28L25.9 18.98C25.96 19.82 27.05 20.11 27.53 19.41L30.11 15.59L30.2899 15.5H50.24C53.58 15.5 56.32 12.77 56.32 9.41998C56.32 6.07998 53.59 3.34003 50.24 3.34003V3.34998Z" fill="#A6EBFF"/>
<path d="M39.8799 52.94H9.21988C6.81988 52.94 4.87988 51 4.87988 48.6C4.87988 46.2 6.81988 44.26 9.21988 44.26H39.8799V52.94Z" fill="#A6EBFF"/>
<path d="M38.0796 46.67H11.3296" stroke="#4499CC" stroke-width="0.46" stroke-miterlimit="10"/>
<path d="M38.0796 49.92H11.3296" stroke="#4499CC" stroke-width="0.46" stroke-miterlimit="10"/>
</svg>
