<svg width="12" height="12" viewBox="0 0 12 12" fill="none" xmlns="http://www.w3.org/2000/svg">
<g clip-path="url(#clip0_14702_914)">
<path d="M1.4423 0.0117188C0.645261 0.0117188 0.000128949 0.658012 0 1.45324C0 2.24924 0.645132 2.89541 1.44242 2.89541C2.23752 2.89541 2.88356 2.24924 2.88356 1.45324C2.88356 0.657883 2.2374 0.0117188 1.4423 0.0117188Z" fill="white"/>
<path d="M0.199219 3.98828H2.68626V11.9901H0.199219V3.98828Z" fill="white"/>
<path d="M9.01786 3.78906C7.80805 3.78906 6.99684 4.45238 6.66479 5.08139H6.63152V3.98803H4.24622H4.24609V11.9897H6.73094V8.03123C6.73094 6.98764 6.92965 5.97681 8.22353 5.97681C9.49883 5.97681 9.51586 7.17037 9.51586 8.09815V11.9896H12.0011V7.60067C12.0011 5.44632 11.5362 3.78906 9.01786 3.78906Z" fill="white"/>
</g>
<defs>
<clipPath id="clip0_14702_914">
<rect width="12" height="12" fill="white"/>
</clipPath>
</defs>
</svg>
