<svg width="18" height="17" viewBox="0 0 18 17" fill="none" xmlns="http://www.w3.org/2000/svg">
<g clip-path="url(#clip0_1_41)">
<g clip-path="url(#clip1_1_41)">
<path d="M4.22198 4.22666C4.22198 3.57921 4.22198 3.25549 4.35697 3.07705C4.47458 2.92159 4.65433 2.82539 4.84891 2.81377C5.07227 2.80043 5.34162 2.98 5.88033 3.33914L12.8908 8.01272C13.3359 8.30947 13.5584 8.45784 13.636 8.64486C13.7038 8.80836 13.7038 8.99212 13.636 9.15562C13.5584 9.34263 13.3359 9.49101 12.8908 9.78776L5.88033 14.4614C5.34162 14.8205 5.07227 15.0001 4.84891 14.9867C4.65433 14.9751 4.47458 14.8789 4.35697 14.7234C4.22198 14.545 4.22198 14.2213 4.22198 13.5738V4.22666Z" stroke="#194153" stroke-width="2" stroke-linecap="round" stroke-linejoin="round"/>
</g>
</g>
<defs>
<clipPath id="clip0_1_41">
<rect width="17" height="16" fill="white" transform="translate(0.389954 0.899994)"/>
</clipPath>
<clipPath id="clip1_1_41">
<rect width="17" height="16" fill="white" transform="translate(0.389954 0.899994)"/>
</clipPath>
</defs>
</svg>
