<svg width="64" height="64" viewBox="0 0 64 64" fill="none" xmlns="http://www.w3.org/2000/svg">
<path d="M27.6844 4.31559L4.31565 27.6843C1.93222 30.0678 1.93216 33.9322 4.3156 36.3156L27.6844 59.6844C30.0678 62.0678 33.9322 62.0678 36.3157 59.6844L59.6844 36.3156C62.0679 33.9322 62.0678 30.0678 59.6844 27.6844L36.3156 4.31561C33.9322 1.93217 30.0678 1.93215 27.6844 4.31559Z" fill="#FF8655"/>
<path d="M21.0883 32.7129H46.1985" stroke="#194153" stroke-width="0.95" stroke-linecap="round" stroke-linejoin="round"/>
<path d="M19.8344 32.7127H22.5496C27.7726 32.7127 32.2981 32.5134 32.0324 22.9642L32.0158 17.3177" stroke="#194153" stroke-width="0.95" stroke-linecap="round" stroke-linejoin="round"/>
<path d="M28.2543 20.7058L31.7169 16.554C31.8913 16.3464 32.2069 16.3464 32.3813 16.554L36.1926 20.9051" stroke="#194153" stroke-width="0.95" stroke-linecap="round" stroke-linejoin="round"/>
<path d="M19.8344 32.9205H22.5496C27.7726 32.9205 32.2981 33.1198 32.0324 42.669L32.0158 48.3155" stroke="#194153" stroke-width="0.95" stroke-linecap="round" stroke-linejoin="round"/>
<path d="M28.2543 44.9192L31.7169 49.071C31.8913 49.2786 32.2069 49.2786 32.3813 49.071L36.1926 44.7198" stroke="#194153" stroke-width="0.95" stroke-linecap="round" stroke-linejoin="round"/>
<path d="M42.7855 36.4578L46.8212 32.9204C47.0205 32.746 47.0205 32.4305 46.8212 32.2561L42.9517 29.0343" stroke="#194153" stroke-width="0.95" stroke-linecap="round" stroke-linejoin="round"/>
</svg>
