<svg width="75" height="56" viewBox="0 0 75 56" fill="none" xmlns="http://www.w3.org/2000/svg">
<path d="M3.46973 3.01001H65.4697V37.82C65.4697 42.23 61.8897 45.81 57.4797 45.81H11.4697C7.05973 45.81 3.47974 42.23 3.47974 37.82V3.01001H3.46973Z" fill="#B2B9FF"/>
<path d="M69.0397 0.269989H0.00976562V3.14999H69.0397V0.269989Z" fill="#194153"/>
<path d="M74.4295 42.22L62.4395 44.22L57.1895 55.06L50.7695 29.97L74.4295 42.22Z" fill="#194153" stroke="#194153" stroke-width="0.47" stroke-linecap="round" stroke-linejoin="round"/>
<path d="M17.5298 22.15H23.1598L26.9998 37.72L30.3798 14.71H53.3898" stroke="#194153" stroke-width="1.9" stroke-linecap="round" stroke-linejoin="round"/>
<path d="M13.4698 31.06C14.4031 31.06 15.1598 30.3034 15.1598 29.37C15.1598 28.4366 14.4031 27.68 13.4698 27.68C12.5364 27.68 11.7798 28.4366 11.7798 29.37C11.7798 30.3034 12.5364 31.06 13.4698 31.06Z" fill="#F9F9F1"/>
<path d="M46.6197 18.65C47.5531 18.65 48.3097 17.8934 48.3097 16.96C48.3097 16.0266 47.5531 15.27 46.6197 15.27C45.6863 15.27 44.9297 16.0266 44.9297 16.96C44.9297 17.8934 45.6863 18.65 46.6197 18.65Z" fill="#F9F9F1"/>
</svg>
