<svg width="17" height="16" viewBox="0 0 17 16" fill="none" xmlns="http://www.w3.org/2000/svg">
<g clip-path="url(#clip0_14707_4823)">
<path d="M11.5 0H5.5C2.739 0 0.5 2.239 0.5 5V11C0.5 13.761 2.739 16 5.5 16H11.5C14.261 16 16.5 13.761 16.5 11V5C16.5 2.239 14.261 0 11.5 0ZM15 11C15 12.93 13.43 14.5 11.5 14.5H5.5C3.57 14.5 2 12.93 2 11V5C2 3.07 3.57 1.5 5.5 1.5H11.5C13.43 1.5 15 3.07 15 5V11Z" fill="white"/>
<path d="M8.5 4C6.291 4 4.5 5.791 4.5 8C4.5 10.209 6.291 12 8.5 12C10.709 12 12.5 10.209 12.5 8C12.5 5.791 10.709 4 8.5 4ZM8.5 10.5C7.122 10.5 6 9.378 6 8C6 6.621 7.122 5.5 8.5 5.5C9.878 5.5 11 6.621 11 8C11 9.378 9.878 10.5 8.5 10.5Z" fill="white"/>
<path d="M12.7986 4.23397C13.093 4.23397 13.3316 3.99534 13.3316 3.70097C13.3316 3.4066 13.093 3.16797 12.7986 3.16797C12.5043 3.16797 12.2656 3.4066 12.2656 3.70097C12.2656 3.99534 12.5043 4.23397 12.7986 4.23397Z" fill="white"/>
</g>
<defs>
<clipPath id="clip0_14707_4823">
<rect width="16" height="16" fill="white" transform="translate(0.5)"/>
</clipPath>
</defs>
</svg>
