<svg width="227" height="84" viewBox="0 0 227 84" fill="none" xmlns="http://www.w3.org/2000/svg">
<rect width="227" height="84" rx="42" fill="#F9F9F1"/>
<path d="M49.3574 37.3976C49.3574 40.0378 47.9019 41.3917 46.311 42.2041C48.8158 43.0503 50.576 44.5058 50.576 47.4506C50.576 51.3094 47.428 53.3742 42.6554 53.3742H32.67V31.9141H42.283C46.6157 31.9141 49.3574 34.0465 49.3574 37.3976ZM45.5663 38.0068C45.5663 36.2467 44.2124 35.2312 41.8091 35.2312H36.3933V40.9178H41.5383C43.9416 40.9517 45.5663 40.0039 45.5663 38.0068ZM46.7849 47.0444C46.7849 45.2166 45.3294 44.1335 42.3846 44.1335H36.3933V50.0231H42.6554C45.194 50.0231 46.7849 49.0077 46.7849 47.0444Z" fill="black"/>
<path d="M53.0469 53.374V31H56.7702V53.374H53.0469Z" fill="black"/>
<path d="M69.9713 53.3741V51.377C68.8543 52.6971 67.1957 53.7125 64.7247 53.7125C61.6445 53.7125 58.9705 51.9524 58.9705 48.7029V48.6352C58.9705 45.1488 61.7461 43.4225 65.5371 43.4225C67.0603 43.3887 68.5835 43.6256 70.0051 44.0995V43.6933C70.0051 41.4593 68.5835 40.2407 66.011 40.2407C64.4201 40.2407 62.8292 40.5792 61.3737 41.2562L60.3583 38.2775C62.2876 37.3636 64.3863 36.8897 66.5187 36.9236C71.2914 36.9236 73.627 39.4284 73.627 43.761V53.3402L69.9713 53.3741ZM70.0728 46.5028C68.8881 46.0627 67.6357 45.8596 66.3495 45.8596C64.0139 45.8596 62.6261 46.8074 62.6261 48.466V48.5337C62.6261 50.0569 64.0139 50.9031 65.7402 50.9031C68.1773 50.9031 70.039 49.5153 70.039 47.4844L70.0728 46.5028Z" fill="black"/>
<path d="M84.0185 53.746C79.4489 53.8137 75.6917 50.158 75.6578 45.5884C75.6578 45.5207 75.6578 45.453 75.6578 45.3515C75.6578 40.7142 79.212 36.8555 84.0523 36.8555C87.1326 36.8555 89.0281 37.9725 90.5174 39.6311L88.2157 42.102C87.0987 40.9173 85.8802 40.0711 84.0185 40.0711C81.3106 40.0711 79.3473 42.4067 79.3473 45.25C79.3473 48.1609 81.3444 50.4965 84.1877 50.4965C85.9478 50.4965 87.2341 49.6503 88.385 48.4656L90.619 50.6657C89.0281 52.4936 87.1664 53.746 84.0185 53.746Z" fill="black"/>
<path d="M107.611 53.374H103.312L98.4381 46.3673L96.1703 48.7367V53.374H92.4469V31H96.1703V44.3702L102.872 37.1943H107.374L100.943 43.7948L107.611 53.374Z" fill="black"/>
<path d="M118.815 53.7125C116.141 53.7125 114.448 52.3585 113.331 50.8692V53.374H109.642V31H113.365V39.8684C114.55 38.1759 116.242 36.822 118.849 36.822C122.674 36.822 126.397 39.8684 126.397 45.2503C126.397 50.6323 122.674 53.7125 118.815 53.7125ZM117.969 40.0715C115.464 40.0715 113.23 42.1362 113.23 45.2842C113.23 48.4321 115.43 50.4969 117.969 50.4969C120.507 50.4969 122.606 48.4998 122.606 45.2842C122.606 42.0685 120.474 40.0715 117.969 40.0715Z" fill="black"/>
<path d="M136.315 53.746C131.373 53.746 127.751 49.9888 127.751 45.3515C127.751 40.7142 131.441 36.8555 136.383 36.8555C141.324 36.8555 144.98 40.6127 144.98 45.2838C144.98 49.9549 141.291 53.746 136.315 53.746ZM136.315 40.1049C133.336 40.1049 131.441 42.4405 131.441 45.2838C131.441 48.1271 133.472 50.5304 136.383 50.5304C139.395 50.5304 141.291 48.1948 141.291 45.3515C141.291 42.5082 139.226 40.1049 136.315 40.1049Z" fill="black"/>
<path d="M157.132 53.3741V51.377C156.049 52.6971 154.356 53.7125 151.885 53.7125C148.839 53.7125 146.131 51.9524 146.131 48.7029V48.6352C146.131 45.1488 148.906 43.4225 152.698 43.4225C154.221 43.3887 155.744 43.6256 157.166 44.0995V43.6933C157.166 41.4593 155.744 40.2407 153.171 40.2407C151.58 40.2407 149.99 40.5792 148.534 41.2562L147.519 38.2775C149.448 37.3636 151.547 36.8897 153.679 36.9236C158.452 36.9236 160.787 39.4284 160.787 43.761V53.3402L157.132 53.3741ZM157.199 46.5028C156.015 46.0627 154.762 45.8596 153.476 45.8596C151.14 45.8596 149.753 46.8074 149.753 48.466V48.5337C149.753 50.0569 151.14 50.9031 152.867 50.9031C155.304 50.9031 157.166 49.5153 157.166 47.4844L157.199 46.5028Z" fill="black"/>
<path d="M167.388 53.3738H163.665V37.1941H167.388V40.8159C168.403 38.3788 170.265 36.754 173.108 36.8556V40.8159H172.905C169.656 40.8159 167.388 42.9145 167.388 47.2133V53.3738Z" fill="black"/>
<path d="M186.546 53.374V50.6661C185.362 52.3585 183.669 53.7125 181.029 53.7125C177.238 53.7125 173.515 50.6661 173.515 45.2842C173.515 39.9022 177.17 36.8558 181.029 36.8558C183.703 36.8558 185.362 38.2098 186.546 39.6991V31H190.27V53.374H186.546ZM181.909 40.0715C179.37 40.0715 177.238 42.0347 177.238 45.2842C177.238 48.4659 179.37 50.4969 181.909 50.4969C184.448 50.4969 186.58 48.4321 186.58 45.2842C186.58 42.1362 184.38 40.0715 181.909 40.0715Z" fill="black"/>
<path d="M194.67 32.3201C194.67 33.0309 194.095 33.6402 193.35 33.6402C192.639 33.6402 192.03 33.0648 192.03 32.3201C192.03 31.6093 192.605 31 193.35 31C194.095 31 194.67 31.5754 194.67 32.3201ZM192.301 32.3201C192.301 32.8955 192.774 33.3694 193.35 33.3694C193.925 33.3694 194.399 32.8955 194.399 32.3201C194.399 31.7447 193.925 31.2708 193.35 31.2708C192.774 31.2708 192.334 31.7447 192.301 32.3201ZM193.451 31.6431C193.79 31.6431 193.959 31.7785 193.959 32.0493C193.959 32.1847 193.925 32.2863 193.79 32.3539C193.891 32.4216 193.891 32.4555 193.925 32.6924C193.959 32.9294 193.925 32.9632 194.027 32.9971H193.655C193.621 32.9294 193.587 32.8278 193.621 32.7601C193.621 32.4893 193.621 32.4555 193.418 32.4555H193.181V32.9971H192.842V31.6093L193.451 31.6431ZM193.147 32.2186H193.384C193.553 32.2186 193.621 32.1847 193.621 32.0832C193.621 31.9816 193.587 31.9139 193.384 31.9139H193.147V32.2186Z" fill="black"/>
</svg>
