<svg width="268" height="84" viewBox="0 0 268 84" fill="none" xmlns="http://www.w3.org/2000/svg">
<rect width="268" height="84" rx="42" fill="#F9F9F1"/>
<g clip-path="url(#clip0_38_549)">
<path d="M25.8698 41.071C25.871 39.1569 25.1719 37.3085 23.9042 35.8743C22.6366 34.44 20.8881 33.5191 18.9883 33.2852C17.6676 38.3917 17.6676 43.7503 18.9883 48.8569C20.8881 48.623 22.6366 47.7021 23.9042 46.2678C25.1719 44.8336 25.871 42.9852 25.8698 41.071Z" fill="#E72429"/>
<path d="M30.4275 38.6152C29.9404 38.6152 29.4643 38.7598 29.0593 39.0305C28.6544 39.3012 28.3389 39.686 28.1528 40.1362C27.9667 40.5863 27.9183 41.0815 28.0137 41.5592C28.1092 42.0369 28.3442 42.4755 28.6891 42.8195C29.0339 43.1635 29.4731 43.3974 29.951 43.4917C30.4289 43.586 30.924 43.5364 31.3737 43.3492C31.8233 43.162 32.2074 42.8456 32.4771 42.44C32.7469 42.0344 32.8902 41.5579 32.8891 41.0708C32.8875 40.419 32.6274 39.7944 32.166 39.3341C31.7045 38.8738 31.0793 38.6152 30.4275 38.6152Z" fill="#E72429"/>
<path d="M64.3741 41.071C64.3729 42.9852 65.072 44.8336 66.3397 46.2678C67.6073 47.7021 69.3558 48.623 71.2556 48.8569C72.5763 43.7503 72.5763 38.3917 71.2556 33.2852C69.3558 33.5191 67.6073 34.44 66.3397 35.8743C65.072 37.3085 64.3729 39.1569 64.3741 41.071Z" fill="#E72429"/>
<path d="M59.8163 38.6152C59.3292 38.6152 58.853 38.7598 58.4481 39.0305C58.0432 39.3012 57.7277 39.686 57.5416 40.1362C57.3554 40.5863 57.307 41.0815 57.4025 41.5592C57.498 42.0369 57.733 42.4755 58.0779 42.8195C58.4227 43.1635 58.8619 43.3974 59.3398 43.4917C59.8176 43.586 60.3128 43.5364 60.7624 43.3492C61.2121 43.162 61.5962 42.8456 61.8659 42.44C62.1357 42.0344 62.279 41.5579 62.2778 41.0708C62.2763 40.419 62.0162 39.7944 61.5548 39.3341C61.0933 38.8738 60.4681 38.6152 59.8163 38.6152Z" fill="#E72429"/>
<path d="M45.0711 60.3979C43.1547 60.4002 41.3054 61.1038 39.8722 62.376C38.4389 63.6481 37.5209 65.4009 37.2912 67.3034C42.3989 68.615 47.7552 68.615 52.863 67.3034C52.6278 65.4042 51.7065 63.6564 50.2725 62.389C48.8386 61.1216 46.9908 60.422 45.0771 60.4219" fill="#E72429"/>
<path d="M45.0711 53.3784C44.5842 53.3784 44.1083 53.5228 43.7035 53.7933C43.2987 54.0637 42.9832 54.4482 42.7969 54.898C42.6106 55.3478 42.5619 55.8427 42.6568 56.3202C42.7518 56.7977 42.9863 57.2363 43.3305 57.5805C43.6748 57.9248 44.1134 58.1592 44.5909 58.2542C45.0684 58.3492 45.5633 58.3004 46.0131 58.1141C46.4629 57.9278 46.8473 57.6123 47.1178 57.2075C47.3883 56.8027 47.5326 56.3268 47.5326 55.84C47.5334 55.5165 47.4703 55.196 47.3469 54.897C47.2234 54.598 47.0421 54.3264 46.8134 54.0976C46.5847 53.8689 46.313 53.6876 46.014 53.5642C45.715 53.4408 45.3946 53.3776 45.0711 53.3784Z" fill="#E72429"/>
<path d="M45.0711 21.8695C46.9849 21.8694 48.8326 21.1698 50.2666 19.9024C51.7005 18.635 52.6218 16.8872 52.857 14.988C47.7501 13.6694 42.3921 13.6694 37.2852 14.988C37.5204 16.8872 38.4417 18.635 39.8756 19.9024C41.3096 21.1698 43.1573 21.8694 45.0711 21.8695Z" fill="#E72429"/>
<path d="M45.0711 23.9658C44.5842 23.9658 44.1083 24.1102 43.7035 24.3807C43.2987 24.6511 42.9832 25.0356 42.7969 25.4854C42.6106 25.9352 42.5619 26.4301 42.6568 26.9076C42.7518 27.3851 42.9863 27.8237 43.3305 28.1679C43.6748 28.5122 44.1134 28.7466 44.5909 28.8416C45.0684 28.9366 45.5633 28.8878 46.0131 28.7015C46.4629 28.5152 46.8473 28.1997 47.1178 27.7949C47.3883 27.3901 47.5326 26.9142 47.5326 26.4274C47.5334 26.1039 47.4703 25.7834 47.3469 25.4844C47.2234 25.1854 47.0421 24.9138 46.8134 24.685C46.5847 24.4563 46.313 24.275 46.014 24.1516C45.715 24.0282 45.3946 23.965 45.0711 23.9658Z" fill="#E72429"/>
<path d="M58.7262 54.7259C57.3765 56.0793 56.5672 57.8788 56.4503 59.7865C56.3334 61.6943 56.917 63.5792 58.0914 65.0872C62.624 62.4015 66.4011 58.6099 69.0695 54.0671C67.5595 52.902 65.6771 52.3263 63.7737 52.4475C61.8703 52.5688 60.0762 53.3786 58.7262 54.7259Z" fill="#E72429"/>
<path d="M53.7494 49.7492C53.407 50.093 53.1741 50.5305 53.0802 51.0066C52.9862 51.4826 53.0354 51.9759 53.2216 52.424C53.4077 52.8721 53.7224 53.255 54.126 53.5244C54.5296 53.7938 55.004 53.9375 55.4892 53.9375C55.9745 53.9375 56.4488 53.7938 56.8524 53.5244C57.256 53.255 57.5708 52.8721 57.7569 52.424C57.9431 51.9759 57.9923 51.4826 57.8983 51.0066C57.8044 50.5305 57.5715 50.093 57.2291 49.7492C57.0013 49.5194 56.7303 49.337 56.4317 49.2125C56.1331 49.088 55.8128 49.0239 55.4892 49.0239C55.1657 49.0239 54.8454 49.088 54.5468 49.2125C54.2481 49.337 53.9771 49.5194 53.7494 49.7492Z" fill="#E72429"/>
<path d="M31.4756 27.4758C32.8258 26.1243 33.636 24.3262 33.754 22.4194C33.872 20.5126 33.2897 18.6283 32.1165 17.1206C27.5781 19.7964 23.7927 23.5797 21.1144 28.1167C22.6226 29.2916 24.5081 29.8749 26.4163 29.7568C28.3245 29.6388 30.1237 28.8276 31.4756 27.4758Z" fill="#E72429"/>
<path d="M32.9729 28.9731C32.6285 29.3173 32.3938 29.7559 32.2987 30.2335C32.2036 30.711 32.2522 31.2061 32.4384 31.656C32.6247 32.1059 32.9402 32.4904 33.345 32.761C33.7499 33.0316 34.2259 33.176 34.7128 33.176C35.1997 33.176 35.6757 33.0316 36.0806 32.761C36.4854 32.4904 36.8009 32.1059 36.9872 31.656C37.1734 31.2061 37.222 30.711 37.1269 30.2335C37.0317 29.7559 36.7971 29.3173 36.4526 28.9731C35.9903 28.5134 35.3648 28.2554 34.7128 28.2554C34.0608 28.2554 33.4353 28.5134 32.9729 28.9731Z" fill="#E72429"/>
<path d="M58.7263 27.4516C60.0786 28.8006 61.8765 29.61 63.7829 29.7279C65.6893 29.8459 67.5733 29.2644 69.0815 28.0924C66.3974 23.5503 62.6034 19.7646 58.0555 17.0903C56.8845 18.6021 56.3063 20.4897 56.4299 22.3979C56.5534 24.3061 57.3701 26.1034 58.7263 27.4516Z" fill="#E72429"/>
<path d="M57.2111 32.4167C57.5555 32.0725 57.7902 31.6339 57.8853 31.1564C57.9805 30.6788 57.9319 30.1838 57.7456 29.7339C57.5594 29.284 57.2439 28.8994 56.839 28.6289C56.4342 28.3583 55.9582 28.2139 55.4712 28.2139C54.9843 28.2139 54.5083 28.3583 54.1035 28.6289C53.6986 28.8994 53.3831 29.284 53.1969 29.7339C53.0106 30.1838 52.962 30.6788 53.0572 31.1564C53.1523 31.6339 53.3869 32.0725 53.7314 32.4167C54.1937 32.8764 54.8192 33.1345 55.4712 33.1345C56.1232 33.1345 56.7487 32.8764 57.2111 32.4167Z" fill="#E72429"/>
<path d="M31.4637 54.6782C30.1105 53.3288 28.3116 52.5192 26.4041 52.4012C24.4967 52.2832 22.6117 52.865 21.1025 54.0374C23.7799 58.5765 27.5654 62.362 32.1046 65.0395C33.277 63.5303 33.8587 61.6453 33.7407 59.7378C33.6228 57.8304 32.8132 56.0315 31.4637 54.6782Z" fill="#E72429"/>
<path d="M32.9729 49.7193C32.6305 50.0631 32.3976 50.5007 32.3037 50.9767C32.2097 51.4528 32.2589 51.946 32.4451 52.3941C32.6312 52.8422 32.946 53.2252 33.3496 53.4945C33.7532 53.7639 34.2275 53.9077 34.7128 53.9077C35.198 53.9077 35.6724 53.7639 36.076 53.4945C36.4796 53.2252 36.7943 52.8422 36.9804 52.3941C37.1666 51.946 37.2158 51.4528 37.1219 50.9767C37.0279 50.5007 36.795 50.0631 36.4526 49.7193C36.2245 49.4902 35.9533 49.3085 35.6548 49.1845C35.3562 49.0604 35.0361 48.9966 34.7128 48.9966C34.3895 48.9966 34.0693 49.0604 33.7708 49.1845C33.4722 49.3085 33.2011 49.4902 32.9729 49.7193Z" fill="#E72429"/>
<path d="M108.209 52.552C108.209 57.8703 104.759 59.8407 99.5423 59.8407H99.4525C94.2359 59.8407 90.7862 57.9182 90.7862 52.552V31.8654C90.7862 26.7447 94.2359 24.5767 99.4525 24.5767H99.5543C104.771 24.5767 108.221 26.7447 108.221 31.8654V35.95H102.507V32.7578C102.507 30.3622 101.309 29.6016 99.5124 29.6016C97.7156 29.6016 96.5178 30.3442 96.5178 32.7578V51.6656C96.5178 54.0612 97.7156 54.8159 99.5124 54.8159C101.309 54.8159 102.507 54.0792 102.507 51.6656V47.6349H108.221L108.209 52.552Z" fill="#E72429"/>
<path d="M128.452 51.7676H122.151L120.918 59.4457H115.402L121.804 24.9722H128.991L135.489 59.4457H129.68L128.452 51.7676ZM127.715 47.0362L125.32 31.7219L122.924 47.0362H127.715Z" fill="#E72429"/>
<path d="M143.281 59.4457V24.9722H148.995L156.236 46.2995V24.9722H161.452V59.4457H156.038L148.504 37.0403V59.4457H143.281Z" fill="#E72429"/>
<path d="M182.043 59.4457H175.742L169.244 24.9722H175.053L179.042 50.5338L183.031 24.9722H188.547L182.043 59.4457Z" fill="#E72429"/>
<path d="M205.592 51.7676H199.286L198.058 59.4457H192.542L198.944 24.9722H206.131L212.647 59.4457H206.832L205.592 51.7676ZM204.861 47.0362L202.466 31.7219L200.07 47.0362H204.861Z" fill="#E72429"/>
<path d="M230.615 35.0637V32.4584C230.615 30.2903 229.381 29.5057 227.71 29.5057C226.039 29.5057 224.805 30.2903 224.805 32.4584V34.854C224.805 36.6508 225.404 37.4114 227.021 38.3517L231.058 40.6156C234.358 42.4842 236.328 44.0114 236.328 47.7067V52.6837C236.328 58.0021 233.028 59.8707 227.806 59.8707H227.71C222.487 59.8707 219.187 58.0739 219.187 52.6837V49.0303H224.805V51.8931C224.805 54.0133 226.033 54.9476 227.758 54.9476C229.483 54.9476 230.711 54.0133 230.711 51.8931V49.1561C230.711 47.3594 230.172 46.4969 228.447 45.5626L224.458 43.2987C221.11 41.3762 219.187 39.8011 219.187 36.2076V31.6738C219.187 26.5471 222.931 24.5767 227.662 24.5767H227.758C232.483 24.5767 236.227 26.5471 236.227 31.6738V35.0637H230.615Z" fill="#E72429"/>
</g>
<defs>
<clipPath id="clip0_38_549">
<rect width="218.328" height="64" fill="white" transform="translate(18 14)"/>
</clipPath>
</defs>
</svg>
