<svg width="139" height="47" viewBox="0 0 139 47" fill="none" xmlns="http://www.w3.org/2000/svg">
<path d="M127.65 3.85001H10.58C6.85208 3.85001 3.83 6.87208 3.83 10.6V35.5C3.83 39.2279 6.85208 42.25 10.58 42.25H127.65C131.378 42.25 134.4 39.2279 134.4 35.5V10.6C134.4 6.87208 131.378 3.85001 127.65 3.85001Z" stroke="#194153" stroke-width="0.4" stroke-miterlimit="10"/>
<path d="M35.65 4.01H10.75C7.02 4.01 4 7.03 4 10.76V35.66C4 39.39 7.02 42.41 10.75 42.41H35.65C39.38 42.41 42.4 39.39 42.4 35.66V10.75C42.4 7.02 39.38 4 35.65 4V4.01ZM33.18 24.81H25.48V32.77H21.98C17.09 32.77 13.13 28.81 13.13 23.92C13.13 19.03 17.09 15.07 21.98 15.07H33.18V24.81Z" fill="#194153"/>
<path d="M36.9 8.24C37.2 8.4 37.43 8.62 37.6 8.91C37.77 9.2 37.86 9.51 37.86 9.87C37.86 10.23 37.77 10.55 37.6 10.83C37.43 11.11 37.19 11.34 36.9 11.5C36.61 11.66 36.28 11.74 35.93 11.74C35.58 11.74 35.26 11.66 34.96 11.5C34.67 11.34 34.43 11.12 34.26 10.83C34.09 10.54 34 10.22 34 9.87C34 9.52 34.09 9.19 34.26 8.91C34.43 8.62 34.67 8.4 34.96 8.24C35.26 8.08 35.58 8 35.93 8C36.28 8 36.6 8.08 36.9 8.24ZM36.74 11.22C36.98 11.09 37.16 10.91 37.3 10.67C37.44 10.43 37.5 10.16 37.5 9.87C37.5 9.58 37.43 9.29 37.3 9.06C37.17 8.83 36.98 8.64 36.74 8.51C36.5 8.38 36.23 8.31 35.94 8.31C35.65 8.31 35.37 8.37 35.13 8.51C34.89 8.65 34.7 8.82 34.56 9.06C34.42 9.3 34.35 9.56 34.35 9.86C34.35 10.16 34.42 10.43 34.56 10.67C34.7 10.91 34.89 11.09 35.13 11.22C35.37 11.35 35.64 11.42 35.94 11.42C36.24 11.42 36.51 11.35 36.74 11.22ZM36.76 10.73C36.76 10.73 36.74 10.82 36.69 10.85C36.64 10.88 36.58 10.89 36.51 10.89C36.43 10.89 36.36 10.85 36.31 10.77C36.26 10.69 36.23 10.57 36.23 10.42C36.23 10.32 36.21 10.24 36.16 10.17C36.11 10.11 36.04 10.07 35.94 10.07H35.61V10.73C35.61 10.73 35.59 10.79 35.56 10.82C35.53 10.85 35.49 10.86 35.45 10.86C35.41 10.86 35.37 10.85 35.34 10.82C35.31 10.79 35.29 10.76 35.29 10.73V8.99C35.29 8.99 35.3 8.93 35.33 8.91C35.36 8.88 35.39 8.87 35.42 8.87H36.01C36.26 8.87 36.44 8.91 36.56 9C36.68 9.09 36.74 9.23 36.74 9.42C36.74 9.68 36.59 9.85 36.3 9.91C36.37 9.95 36.44 10.02 36.49 10.11C36.54 10.2 36.57 10.29 36.57 10.39C36.57 10.48 36.57 10.54 36.6 10.57C36.63 10.6 36.65 10.62 36.69 10.64C36.75 10.65 36.78 10.68 36.78 10.73H36.76ZM36.28 9.69C36.36 9.64 36.4 9.56 36.4 9.45C36.4 9.34 36.37 9.26 36.3 9.22C36.23 9.18 36.13 9.16 36 9.16H35.6V9.76H35.95C36.08 9.76 36.19 9.73 36.27 9.68L36.28 9.69Z" fill="#F9F9F1"/>
<path d="M62.048 19.28C62.3253 19.28 62.5547 19.3707 62.736 19.552C62.9173 19.7333 63.008 19.968 63.008 20.256V27.024C63.008 27.3013 62.9173 27.536 62.736 27.728C62.5547 27.9093 62.3253 28 62.048 28C61.7707 28 61.5413 27.9093 61.36 27.728C61.1787 27.536 61.088 27.3013 61.088 27.024V26.24L61.44 26.384C61.44 26.5227 61.3653 26.6933 61.216 26.896C61.0667 27.088 60.864 27.28 60.608 27.472C60.352 27.664 60.048 27.8293 59.696 27.968C59.3547 28.096 58.9813 28.16 58.576 28.16C57.84 28.16 57.1733 27.9733 56.576 27.6C55.9787 27.216 55.504 26.6933 55.152 26.032C54.8107 25.36 54.64 24.592 54.64 23.728C54.64 22.8533 54.8107 22.0853 55.152 21.424C55.504 20.752 55.9733 20.2293 56.56 19.856C57.1467 19.472 57.7973 19.28 58.512 19.28C58.9707 19.28 59.392 19.3493 59.776 19.488C60.16 19.6267 60.4907 19.8027 60.768 20.016C61.056 20.2293 61.2747 20.448 61.424 20.672C61.584 20.8853 61.664 21.0667 61.664 21.216L61.088 21.424V20.256C61.088 19.9787 61.1787 19.7493 61.36 19.568C61.5413 19.376 61.7707 19.28 62.048 19.28ZM58.816 26.4C59.2853 26.4 59.696 26.2827 60.048 26.048C60.4 25.8133 60.672 25.4933 60.864 25.088C61.0667 24.6827 61.168 24.2293 61.168 23.728C61.168 23.216 61.0667 22.7573 60.864 22.352C60.672 21.9467 60.4 21.6267 60.048 21.392C59.696 21.1573 59.2853 21.04 58.816 21.04C58.3573 21.04 57.952 21.1573 57.6 21.392C57.248 21.6267 56.9707 21.9467 56.768 22.352C56.576 22.7573 56.48 23.216 56.48 23.728C56.48 24.2293 56.576 24.6827 56.768 25.088C56.9707 25.4933 57.248 25.8133 57.6 26.048C57.952 26.2827 58.3573 26.4 58.816 26.4ZM69.3589 19.28C70.1055 19.28 70.7722 19.472 71.3589 19.856C71.9562 20.2293 72.4255 20.7467 72.7669 21.408C73.1189 22.0693 73.2949 22.8373 73.2949 23.712C73.2949 24.5867 73.1189 25.36 72.7669 26.032C72.4255 26.6933 71.9615 27.216 71.3749 27.6C70.7989 27.9733 70.1482 28.16 69.4229 28.16C68.9962 28.16 68.5962 28.0907 68.2229 27.952C67.8495 27.8133 67.5189 27.6373 67.2309 27.424C66.9535 27.2107 66.7349 26.9973 66.5749 26.784C66.4255 26.56 66.3509 26.3733 66.3509 26.224L66.8469 26.016V30.224C66.8469 30.5013 66.7562 30.7307 66.5749 30.912C66.3935 31.104 66.1642 31.2 65.8869 31.2C65.6095 31.2 65.3802 31.1093 65.1989 30.928C65.0175 30.7467 64.9269 30.512 64.9269 30.224V20.416C64.9269 20.1387 65.0175 19.9093 65.1989 19.728C65.3802 19.536 65.6095 19.44 65.8869 19.44C66.1642 19.44 66.3935 19.536 66.5749 19.728C66.7562 19.9093 66.8469 20.1387 66.8469 20.416V21.2L66.5749 21.056C66.5749 20.9173 66.6495 20.752 66.7989 20.56C66.9482 20.3573 67.1509 20.16 67.4069 19.968C67.6629 19.7653 67.9562 19.6 68.2869 19.472C68.6282 19.344 68.9855 19.28 69.3589 19.28ZM69.1189 21.04C68.6495 21.04 68.2389 21.1573 67.8869 21.392C67.5349 21.6267 67.2575 21.9467 67.0549 22.352C66.8629 22.7467 66.7669 23.2 66.7669 23.712C66.7669 24.2133 66.8629 24.672 67.0549 25.088C67.2575 25.4933 67.5349 25.8133 67.8869 26.048C68.2389 26.2827 68.6495 26.4 69.1189 26.4C69.5882 26.4 69.9935 26.2827 70.3349 26.048C70.6869 25.8133 70.9589 25.4933 71.1509 25.088C71.3535 24.672 71.4549 24.2133 71.4549 23.712C71.4549 23.2 71.3535 22.7467 71.1509 22.352C70.9589 21.9467 70.6869 21.6267 70.3349 21.392C69.9935 21.1573 69.5882 21.04 69.1189 21.04ZM75.7738 28C75.4964 28 75.2671 27.9093 75.0858 27.728C74.9044 27.536 74.8138 27.3013 74.8138 27.024V20.416C74.8138 20.1387 74.9044 19.9093 75.0858 19.728C75.2671 19.536 75.4964 19.44 75.7738 19.44C76.0511 19.44 76.2804 19.536 76.4618 19.728C76.6431 19.9093 76.7338 20.1387 76.7338 20.416V21.92L76.6218 20.848C76.7391 20.592 76.8884 20.368 77.0698 20.176C77.2618 19.9733 77.4751 19.808 77.7098 19.68C77.9444 19.5413 78.1951 19.44 78.4618 19.376C78.7284 19.312 78.9951 19.28 79.2618 19.28C79.5818 19.28 79.8484 19.3707 80.0618 19.552C80.2858 19.7333 80.3978 19.9467 80.3978 20.192C80.3978 20.544 80.3071 20.8 80.1258 20.96C79.9444 21.1093 79.7471 21.184 79.5338 21.184C79.3311 21.184 79.1444 21.1467 78.9738 21.072C78.8138 20.9973 78.6271 20.96 78.4138 20.96C78.2218 20.96 78.0244 21.008 77.8218 21.104C77.6298 21.1893 77.4484 21.328 77.2778 21.52C77.1178 21.712 76.9844 21.952 76.8778 22.24C76.7818 22.5173 76.7338 22.848 76.7338 23.232V27.024C76.7338 27.3013 76.6431 27.536 76.4618 27.728C76.2804 27.9093 76.0511 28 75.7738 28ZM85.2639 28.16C84.3572 28.16 83.5679 27.9733 82.8959 27.6C82.2345 27.216 81.7225 26.6987 81.3599 26.048C81.0079 25.3973 80.8319 24.6613 80.8319 23.84C80.8319 22.88 81.0239 22.064 81.4079 21.392C81.8025 20.7093 82.3145 20.1867 82.9439 19.824C83.5732 19.4613 84.2399 19.28 84.9439 19.28C85.4879 19.28 85.9999 19.392 86.4799 19.616C86.9705 19.84 87.4025 20.1493 87.7759 20.544C88.1492 20.928 88.4425 21.376 88.6559 21.888C88.8799 22.4 88.9919 22.944 88.9919 23.52C88.9812 23.776 88.8799 23.984 88.6879 24.144C88.4959 24.304 88.2719 24.384 88.0159 24.384H81.9039L81.4239 22.784H87.2959L86.9439 23.104V22.672C86.9225 22.3627 86.8105 22.0853 86.6079 21.84C86.4159 21.5947 86.1705 21.4027 85.8719 21.264C85.5839 21.1147 85.2745 21.04 84.9439 21.04C84.6239 21.04 84.3252 21.0827 84.0479 21.168C83.7705 21.2533 83.5305 21.3973 83.3279 21.6C83.1252 21.8027 82.9652 22.0747 82.8479 22.416C82.7305 22.7573 82.6719 23.1893 82.6719 23.712C82.6719 24.288 82.7892 24.7787 83.0239 25.184C83.2692 25.5787 83.5785 25.8827 83.9519 26.096C84.3359 26.2987 84.7412 26.4 85.1679 26.4C85.5625 26.4 85.8772 26.368 86.1119 26.304C86.3465 26.24 86.5332 26.1653 86.6719 26.08C86.8212 25.984 86.9545 25.904 87.0719 25.84C87.2639 25.744 87.4452 25.696 87.6159 25.696C87.8505 25.696 88.0425 25.776 88.1919 25.936C88.3519 26.096 88.4319 26.2827 88.4319 26.496C88.4319 26.784 88.2825 27.0453 87.9839 27.28C87.7065 27.5147 87.3172 27.7227 86.8159 27.904C86.3145 28.0747 85.7972 28.16 85.2639 28.16ZM95.0854 19.28C95.8747 19.28 96.472 19.4453 96.8774 19.776C97.2934 20.1067 97.576 20.5493 97.7254 21.104C97.8854 21.648 97.9654 22.256 97.9654 22.928V27.024C97.9654 27.3013 97.8747 27.536 97.6934 27.728C97.512 27.9093 97.2827 28 97.0054 28C96.728 28 96.4987 27.9093 96.3174 27.728C96.136 27.536 96.0454 27.3013 96.0454 27.024V22.928C96.0454 22.576 95.9974 22.2613 95.9014 21.984C95.816 21.696 95.656 21.4667 95.4214 21.296C95.1867 21.1253 94.8507 21.04 94.4134 21.04C93.9867 21.04 93.624 21.1253 93.3254 21.296C93.0374 21.4667 92.8134 21.696 92.6534 21.984C92.504 22.2613 92.4294 22.576 92.4294 22.928V27.024C92.4294 27.3013 92.3387 27.536 92.1574 27.728C91.976 27.9093 91.7467 28 91.4694 28C91.192 28 90.9627 27.9093 90.7814 27.728C90.6 27.536 90.5094 27.3013 90.5094 27.024V20.416C90.5094 20.1387 90.6 19.9093 90.7814 19.728C90.9627 19.536 91.192 19.44 91.4694 19.44C91.7467 19.44 91.976 19.536 92.1574 19.728C92.3387 19.9093 92.4294 20.1387 92.4294 20.416V21.104L92.1894 21.056C92.2854 20.8747 92.424 20.6827 92.6054 20.48C92.7867 20.2667 93 20.0693 93.2454 19.888C93.4907 19.7067 93.768 19.5627 94.0774 19.456C94.3867 19.3387 94.7227 19.28 95.0854 19.28ZM106.889 16.16C107.166 16.16 107.395 16.2507 107.577 16.432C107.758 16.6133 107.849 16.848 107.849 17.136V27.024C107.849 27.3013 107.758 27.536 107.577 27.728C107.395 27.9093 107.166 28 106.889 28C106.611 28 106.382 27.9093 106.201 27.728C106.019 27.536 105.929 27.3013 105.929 27.024V26.24L106.281 26.384C106.281 26.5227 106.206 26.6933 106.057 26.896C105.907 27.088 105.705 27.28 105.449 27.472C105.193 27.664 104.889 27.8293 104.537 27.968C104.195 28.096 103.822 28.16 103.417 28.16C102.681 28.16 102.014 27.9733 101.417 27.6C100.819 27.216 100.345 26.6933 99.9926 26.032C99.6513 25.36 99.4806 24.592 99.4806 23.728C99.4806 22.8533 99.6513 22.0853 99.9926 21.424C100.345 20.752 100.814 20.2293 101.401 19.856C101.987 19.472 102.638 19.28 103.353 19.28C103.811 19.28 104.233 19.3493 104.617 19.488C105.001 19.6267 105.331 19.8027 105.609 20.016C105.897 20.2293 106.115 20.448 106.265 20.672C106.425 20.8853 106.505 21.0667 106.505 21.216L105.929 21.424V17.136C105.929 16.8587 106.019 16.6293 106.201 16.448C106.382 16.256 106.611 16.16 106.889 16.16ZM103.657 26.4C104.126 26.4 104.537 26.2827 104.889 26.048C105.241 25.8133 105.513 25.4933 105.705 25.088C105.907 24.6827 106.009 24.2293 106.009 23.728C106.009 23.216 105.907 22.7573 105.705 22.352C105.513 21.9467 105.241 21.6267 104.889 21.392C104.537 21.1573 104.126 21.04 103.657 21.04C103.198 21.04 102.793 21.1573 102.441 21.392C102.089 21.6267 101.811 21.9467 101.609 22.352C101.417 22.7573 101.321 23.216 101.321 23.728C101.321 24.2293 101.417 24.6827 101.609 25.088C101.811 25.4933 102.089 25.8133 102.441 26.048C102.793 26.2827 103.198 26.4 103.657 26.4ZM111.576 27.024C111.576 27.3013 111.485 27.536 111.304 27.728C111.122 27.9093 110.893 28 110.616 28C110.338 28 110.109 27.9093 109.928 27.728C109.746 27.536 109.656 27.3013 109.656 27.024V20.416C109.656 20.1387 109.746 19.9093 109.928 19.728C110.109 19.536 110.338 19.44 110.616 19.44C110.893 19.44 111.122 19.536 111.304 19.728C111.485 19.9093 111.576 20.1387 111.576 20.416V27.024ZM110.6 18.4C110.237 18.4 109.981 18.3413 109.832 18.224C109.682 18.1067 109.608 17.8987 109.608 17.6V17.296C109.608 16.9867 109.688 16.7787 109.848 16.672C110.018 16.5547 110.274 16.496 110.616 16.496C110.989 16.496 111.25 16.5547 111.4 16.672C111.549 16.7893 111.624 16.9973 111.624 17.296V17.6C111.624 17.9093 111.544 18.1227 111.384 18.24C111.224 18.3467 110.962 18.4 110.6 18.4ZM118.845 26.24C119.101 26.24 119.314 26.3253 119.485 26.496C119.655 26.656 119.741 26.864 119.741 27.12C119.741 27.3653 119.655 27.5733 119.485 27.744C119.314 27.9147 119.101 28 118.845 28H113.693C113.426 28 113.213 27.904 113.053 27.712C112.893 27.52 112.818 27.328 112.829 27.136C112.839 26.976 112.861 26.8373 112.893 26.72C112.925 26.592 113.005 26.448 113.133 26.288L117.117 21.136L117.085 21.36H113.837C113.581 21.36 113.367 21.2747 113.197 21.104C113.026 20.9333 112.941 20.72 112.941 20.464C112.941 20.2187 113.026 20.016 113.197 19.856C113.367 19.6853 113.581 19.6 113.837 19.6H118.765C119.01 19.6 119.218 19.6907 119.389 19.872C119.559 20.0533 119.634 20.2827 119.613 20.56C119.602 20.6667 119.581 20.7733 119.549 20.88C119.527 20.9867 119.458 21.1147 119.341 21.264L115.421 26.336V26.24H118.845Z" fill="#194153"/>
</svg>
